<?xml version="1.0" encoding="UTF-8"?>
<svg version="1.1" xmlns="http://www.w3.org/2000/svg" width="448" height="272">
<path d="M0 0 C26.88516724 0.48087291 53.9594698 8.23355246 78 20 C78.73911621 20.3599707 79.47823242 20.71994141 80.23974609 21.09082031 C104.62938967 33.11291092 125.61013249 52.37740415 142 74 C142.41523926 74.53351074 142.83047852 75.06702148 143.25830078 75.61669922 C159.01688073 95.89086205 176.93524002 123.07965578 174 150 C173 153.75 173 153.75 172 156 C167.09819977 152.51218061 162.58730751 148.78704702 158.1875 144.6875 C153.54609944 140.36695039 148.77733341 136.28328993 143.8359375 132.3046875 C140.74412357 129.79205635 137.71562812 127.21352448 134.6875 124.625 C129.59780362 120.28801055 124.3963512 116.11785953 119.12133789 112.0090332 C113.67262073 107.7624311 108.32488009 103.4011764 103 99 C106.89915337 104.47989122 111.16846439 109.44316586 115.75024414 114.35327148 C118.89029492 117.73695148 121.85664499 121.21188043 124.75 124.8125 C127.76725478 128.55990896 130.88623718 132.00418748 134.33984375 135.34765625 C136.04384226 137.04363594 137.61714083 138.80489696 139.1875 140.625 C146.45966822 149.04626929 154.04228705 157.22314416 162 165 C161.67 165.66 161.34 166.32 161 167 C142.41119468 172.97497314 123.54767853 164.88671461 106.99389648 156.56689453 C97.10825766 151.46674268 87.9298143 145.62158554 79 139 C78.39317383 138.55011719 77.78634766 138.10023438 77.16113281 137.63671875 C68.82928716 131.39570323 61.03728439 124.6561213 53.52294922 117.45556641 C52.06958809 116.06650917 50.59962301 114.69488675 49.12890625 113.32421875 C19.96417671 85.40054153 4.79697567 43.3705104 0 4 C0 2.68 0 1.36 0 0 Z " fill="#101010" transform="translate(18,87)"/>
<path d="M0 0 C-6.29553968 50.97851644 -26.11291865 97.54494047 -67.2890625 129.90625 C-68.18367188 130.5971875 -69.07828125 131.288125 -70 132 C-71.43472656 133.16015625 -71.43472656 133.16015625 -72.8984375 134.34375 C-94.18892608 151.29033537 -124.33447147 171.81034593 -153 169 C-156.08478659 168.19608592 -159.03860244 167.1761579 -162 166 C-158.96997286 162.37874805 -155.93217419 158.87118461 -152.5625 155.5625 C-149.57434432 152.61981625 -146.81891667 149.54271596 -144.08203125 146.3671875 C-141.439536 143.36277451 -138.72159827 140.43265928 -136 137.5 C-128.94619106 129.88525198 -122.17668507 122.04938602 -115.42871094 114.16381836 C-111.64935782 109.74917398 -107.84411103 105.35846391 -104 101 C-106.878418 102.3314565 -109.19196251 103.83298322 -111.6171875 105.87109375 C-112.29966553 106.43997314 -112.98214355 107.00885254 -113.68530273 107.5949707 C-114.40790283 108.20300537 -115.13050293 108.81104004 -115.875 109.4375 C-121.33011168 113.98625268 -126.82012527 118.46571261 -132.4375 122.8125 C-137.34489133 126.62322904 -142.0029129 130.61532265 -146.578125 134.82421875 C-149.13257166 137.11910067 -151.76472107 139.28191134 -154.4375 141.4375 C-160.170343 146.07291305 -165.59362514 150.99099892 -171 156 C-174.37311758 152.62688242 -174.20098084 148.87511051 -174.3125 144.25 C-173.82458866 110.47152287 -148.31898521 79.26232976 -126 56 C-125.40558105 55.37303223 -124.81116211 54.74606445 -124.19873047 54.10009766 C-92.82476972 21.14747255 -46.02286516 -0.27624769 0 0 Z " fill="#101010" transform="translate(438,87)"/>
<path d="M0 0 C0.66 0 1.32 0 2 0 C14.53540422 13.90880508 24.24100579 31.04976705 32 48 C32.33483398 48.71559082 32.66966797 49.43118164 33.01464844 50.16845703 C53.61431268 94.56895399 52.69588215 147.70261562 36.86816406 193.63476562 C31.66416092 207.81260096 24.58984244 223.14630407 11 231 C10.01 231 9.02 231 8 231 C7.94180084 230.19472366 7.88360168 229.38944733 7.82363892 228.55976868 C7.26742249 220.86959116 6.70887025 213.17958818 6.1478672 205.48975849 C5.85971589 201.53891477 5.5723843 197.58801543 5.28710938 193.63696289 C4.04240551 176.40588199 2.7698981 159.18703738 1 142 C-1.94376789 171.63557923 -4.22055377 201.2721777 -6 231 C-13.55512953 229.67403267 -17.75413939 224.9293834 -22.3359375 218.953125 C-45.80979109 185.16990969 -51.21925191 132.59362777 -44.875 92.6875 C-44.346332 89.76429597 -43.71056859 86.88411038 -43 84 C-42.70996094 82.82219971 -42.70996094 82.82219971 -42.4140625 81.62060547 C-35.29790876 53.86431138 -21.81813965 28.53276809 -4.625 5.75 C-4.19574219 5.17596436 -3.76648438 4.60192871 -3.32421875 4.01049805 C-2.26519374 2.63448452 -1.13800049 1.31145038 0 0 Z " fill="#101010" transform="translate(227,3)"/>
</svg>
